<?xml version="1.0" encoding="utf-8"?>
<!-- Generator: Adobe Illustrator 21.1.0, SVG Export Plug-In . SVG Version: 6.00 Build 0)  -->
<svg version="1.1" id="Layer_1" xmlns="http://www.w3.org/2000/svg" xmlns:xlink="http://www.w3.org/1999/xlink" x="0px" y="0px"
	 viewBox="0 0 105 16.1" style="enable-background:new 0 0 105 16.1;" xml:space="preserve">
<style type="text/css">
	.st0{fill:#FBBC94;}
</style>
<path class="st0" d="M8,15.9H7.5V8.5c0-1.1-0.3-1.9-0.7-2.5C6.3,5.5,5.5,5.2,4.5,5.2c-1.2,0-2.2,0.5-3,1.6C1,7.5,0.7,8.2,0.6,8.9v7
	H0V4.9h0.6v2.6c0.4-0.9,0.9-1.6,1.6-2.1s1.5-0.7,2.3-0.7c0.9,0,1.7,0.2,2.3,0.6c0.6,0.4,1,1.1,1.2,2c0.3-0.8,0.9-1.4,1.6-1.9
	c0.7-0.5,1.6-0.7,2.5-0.7c1.2,0,2.1,0.3,2.7,1c0.6,0.7,0.9,1.7,0.9,3v7.2H15V8.8c0-1.2-0.2-2.1-0.7-2.7C13.8,5.5,13,5.2,12,5.2
	c-1.3,0-2.4,0.6-3.2,1.6C8.3,7.4,8.1,8,8,8.6V15.9z"/>
<path class="st0" d="M26.1,15.9c-0.1-0.5-0.2-1.1-0.2-2c-0.4,0.7-1,1.3-1.8,1.6c-0.8,0.4-1.6,0.6-2.6,0.6c-1,0-1.8-0.3-2.5-0.8
	c-0.6-0.6-0.9-1.3-0.9-2.2c0-1,0.5-1.8,1.4-2.4c0.9-0.6,2.1-0.9,3.7-0.9h2.7V8.1c0-0.9-0.3-1.6-0.9-2.2c-0.6-0.5-1.4-0.8-2.5-0.8
	c-1,0-1.9,0.3-2.5,0.8c-0.7,0.5-1,1.2-1,1.9l-0.6,0c0-0.9,0.4-1.7,1.2-2.3c0.8-0.6,1.8-0.9,2.9-0.9c1.2,0,2.1,0.3,2.8,0.9
	C26,6.1,26.4,7,26.4,8.1v5.3c0,1.2,0.1,2,0.3,2.5v0.1H26.1z M21.5,15.6c1,0,1.9-0.2,2.7-0.7c0.7-0.5,1.3-1.1,1.7-2v-2.6h-2.6
	c-1.6,0-2.8,0.3-3.6,0.9c-0.7,0.5-1,1.1-1,1.9c0,0.7,0.3,1.2,0.8,1.7C20,15.4,20.7,15.6,21.5,15.6z"/>
<path class="st0" d="M31.2,1.9v3h2.5v0.6h-2.5v7.9c0,0.8,0.1,1.4,0.4,1.7c0.3,0.4,0.7,0.6,1.3,0.6c0.3,0,0.7,0,1.1-0.1l0.1,0.5
	c-0.2,0.1-0.6,0.1-1.2,0.1c-0.8,0-1.4-0.2-1.7-0.7c-0.3-0.4-0.5-1.2-0.5-2.1V5.4h-2V4.9h2v-3H31.2z"/>
<path class="st0" d="M40.6,16.1c-0.9,0-1.7-0.2-2.5-0.7c-0.7-0.5-1.3-1.1-1.8-2c-0.4-0.8-0.6-1.8-0.6-2.8v-0.5c0-1,0.2-2,0.6-2.8
	c0.4-0.9,1-1.5,1.7-2c0.7-0.5,1.5-0.7,2.3-0.7c1.2,0,2.2,0.4,3,1.3c0.8,0.9,1.2,2,1.2,3.5V10h-8.3v0.6c0,0.9,0.2,1.7,0.6,2.5
	c0.4,0.8,0.9,1.4,1.6,1.8c0.7,0.4,1.4,0.7,2.2,0.7c0.7,0,1.4-0.1,1.9-0.4c0.5-0.2,1-0.6,1.4-1.1l0.4,0.3
	C43.4,15.5,42.2,16.1,40.6,16.1z M40.4,5.2c-1.1,0-2,0.4-2.7,1.2c-0.8,0.8-1.2,1.8-1.3,3.1H44V9.3c0-0.8-0.2-1.4-0.5-2.1
	s-0.8-1.1-1.3-1.5C41.7,5.4,41.1,5.2,40.4,5.2z"/>
<path class="st0" d="M52,5.3l-0.7-0.1c-0.9,0-1.7,0.3-2.4,0.9c-0.6,0.6-1.1,1.5-1.2,2.6v7.2h-0.6V4.9h0.6v2.3
	c0.3-0.8,0.8-1.4,1.4-1.8c0.6-0.5,1.4-0.7,2.3-0.7c0.3,0,0.6,0,0.8,0.1L52,5.3z"/>
<path class="st0" d="M54,1.4c0-0.2,0.1-0.3,0.2-0.4c0.1-0.1,0.2-0.2,0.4-0.2c0.2,0,0.3,0.1,0.4,0.2c0.1,0.1,0.2,0.2,0.2,0.4
	S55.1,1.7,55,1.8C54.9,1.9,54.7,2,54.6,2c-0.2,0-0.3-0.1-0.4-0.2C54.1,1.7,54,1.6,54,1.4z M54.9,15.9h-0.6V4.9h0.6V15.9z"/>
<path class="st0" d="M65.6,15.9c-0.1-0.5-0.2-1.1-0.2-2c-0.4,0.7-1,1.3-1.8,1.6c-0.8,0.4-1.6,0.6-2.6,0.6c-1,0-1.8-0.3-2.5-0.8
	c-0.6-0.6-0.9-1.3-0.9-2.2c0-1,0.5-1.8,1.4-2.4c0.9-0.6,2.1-0.9,3.7-0.9h2.7V8.1c0-0.9-0.3-1.6-0.9-2.2c-0.6-0.5-1.4-0.8-2.5-0.8
	c-1,0-1.9,0.3-2.5,0.8c-0.7,0.5-1,1.2-1,1.9l-0.6,0c0-0.9,0.4-1.7,1.2-2.3c0.8-0.6,1.8-0.9,2.9-0.9c1.2,0,2.1,0.3,2.8,0.9
	C65.6,6.1,66,7,66,8.1v5.3c0,1.2,0.1,2,0.3,2.5v0.1H65.6z M61.1,15.6c1,0,1.9-0.2,2.7-0.7c0.7-0.5,1.3-1.1,1.7-2v-2.6h-2.6
	c-1.6,0-2.8,0.3-3.6,0.9c-0.7,0.5-1,1.1-1,1.9c0,0.7,0.3,1.2,0.8,1.7C59.6,15.4,60.3,15.6,61.1,15.6z"/>
<path class="st0" d="M70.2,15.9h-0.6V0.2h0.6V15.9z"/>
<path class="st0" d="M79.7,15.9V5.4h-1.9V4.9h1.9V3.2c0-1,0.3-1.8,0.8-2.4C81,0.3,81.7,0,82.6,0c0.5,0,0.9,0.1,1.3,0.2l-0.1,0.5
	c-0.4-0.1-0.8-0.2-1.2-0.2c-0.7,0-1.3,0.2-1.7,0.7c-0.4,0.5-0.6,1.1-0.6,2v1.6h2.9v0.6h-2.9v10.5H79.7z"/>
<path class="st0" d="M86.2,15.9h-0.6V0.2h0.6V15.9z"/>
<path class="st0" d="M97,15.9c-0.1-0.5-0.2-1.1-0.2-2c-0.4,0.7-1,1.3-1.8,1.6c-0.8,0.4-1.6,0.6-2.6,0.6c-1,0-1.8-0.3-2.5-0.8
	C89.3,14.7,89,14,89,13.1c0-1,0.5-1.8,1.4-2.4c0.9-0.6,2.1-0.9,3.7-0.9h2.7V8.1c0-0.9-0.3-1.6-0.9-2.2c-0.6-0.5-1.4-0.8-2.5-0.8
	c-1,0-1.9,0.3-2.5,0.8c-0.7,0.5-1,1.2-1,1.9l-0.6,0c0-0.9,0.4-1.7,1.2-2.3c0.8-0.6,1.8-0.9,2.9-0.9c1.2,0,2.1,0.3,2.8,0.9
	c0.7,0.6,1.1,1.4,1.1,2.5v5.3c0,1.2,0.1,2,0.3,2.5v0.1H97z M92.4,15.6c1,0,1.9-0.2,2.7-0.7c0.7-0.5,1.3-1.1,1.7-2v-2.6h-2.6
	c-1.6,0-2.8,0.3-3.6,0.9c-0.7,0.5-1,1.1-1,1.9c0,0.7,0.3,1.2,0.8,1.7C90.9,15.4,91.6,15.6,92.4,15.6z"/>
<path class="st0" d="M102.1,1.9v3h2.5v0.6h-2.5v7.9c0,0.8,0.1,1.4,0.4,1.7c0.3,0.4,0.7,0.6,1.3,0.6c0.3,0,0.7,0,1.1-0.1L105,16
	c-0.2,0.1-0.6,0.1-1.2,0.1c-0.8,0-1.4-0.2-1.7-0.7c-0.3-0.4-0.5-1.2-0.5-2.1V5.4h-2V4.9h2v-3H102.1z"/>
</svg>
